<svg width="180" height="175" viewBox="0 0 180 175" fill="none" xmlns="http://www.w3.org/2000/svg">
<path d="M51.0166 15H48.3802L52.3972 3.36364H55.5677L59.5791 15H56.9427L54.0279 6.02273H53.937L51.0166 15ZM50.8518 10.4261H57.0791V12.3466H50.8518V10.4261ZM70.6998 7.4375H68.2112C68.1657 7.11553 68.0729 6.82955 67.9328 6.57955C67.7926 6.32576 67.6127 6.10985 67.393 5.93182C67.1733 5.75379 66.9195 5.61742 66.6316 5.52273C66.3475 5.42803 66.0388 5.38068 65.7055 5.38068C65.1032 5.38068 64.5786 5.5303 64.1316 5.82955C63.6846 6.125 63.3381 6.55682 63.0918 7.125C62.8456 7.68939 62.7225 8.375 62.7225 9.18182C62.7225 10.0114 62.8456 10.7083 63.0918 11.2727C63.3418 11.8371 63.6903 12.2633 64.1373 12.5511C64.5843 12.839 65.1013 12.983 65.6884 12.983C66.018 12.983 66.3229 12.9394 66.6032 12.8523C66.8873 12.7652 67.1392 12.6383 67.3589 12.4716C67.5786 12.3011 67.7604 12.0947 67.9043 11.8523C68.0521 11.6098 68.1543 11.3333 68.2112 11.0227L70.6998 11.0341C70.6354 11.5682 70.4744 12.0833 70.2168 12.5795C69.9631 13.072 69.6203 13.5133 69.1884 13.9034C68.7604 14.2898 68.249 14.5966 67.6543 14.8239C67.0634 15.0473 66.3949 15.1591 65.6487 15.1591C64.6108 15.1591 63.6828 14.9242 62.8646 14.4545C62.0502 13.9848 61.4062 13.3049 60.9328 12.4148C60.4631 11.5246 60.2282 10.447 60.2282 9.18182C60.2282 7.91288 60.4668 6.83333 60.9441 5.94318C61.4214 5.05303 62.0691 4.375 62.8873 3.90909C63.7055 3.43939 64.6259 3.20455 65.6487 3.20455C66.3229 3.20455 66.9479 3.29924 67.5237 3.48864C68.1032 3.67803 68.6165 3.95455 69.0634 4.31818C69.5104 4.67803 69.874 5.11932 70.1543 5.64205C70.4384 6.16477 70.6203 6.76326 70.6998 7.4375ZM72.464 15V3.36364H74.9242V12.9716H79.9129V15H72.464ZM84.5634 3.36364H87.3191L89.9725 8.375H90.0862L92.7396 3.36364H95.4953L91.2509 10.8864V15H88.8078V10.8864L84.5634 3.36364ZM98.9427 15.1705C98.045 15.1705 97.2722 14.9886 96.6245 14.625C95.9806 14.2576 95.4844 13.7386 95.1359 13.0682C94.7874 12.3939 94.6131 11.5966 94.6131 10.6761C94.6131 9.77841 94.7874 8.99053 95.1359 8.3125C95.4844 7.63447 95.9749 7.10606 96.6075 6.72727C97.2438 6.34848 97.99 6.15909 98.8461 6.15909C99.4219 6.15909 99.9578 6.25189 100.454 6.4375C100.954 6.61932 101.39 6.89394 101.761 7.26136C102.136 7.62879 102.428 8.09091 102.636 8.64773C102.844 9.20076 102.948 9.84848 102.948 10.5909V11.2557H95.5791V9.75568H100.67C100.67 9.4072 100.594 9.09848 100.443 8.82955C100.291 8.56061 100.081 8.35038 99.812 8.19886C99.5469 8.04356 99.2381 7.96591 98.8859 7.96591C98.5185 7.96591 98.1927 8.05114 97.9086 8.22159C97.6283 8.38826 97.4086 8.61364 97.2495 8.89773C97.0904 9.17803 97.009 9.49053 97.0052 9.83523V11.2614C97.0052 11.6932 97.0847 12.0663 97.2438 12.3807C97.4067 12.6951 97.6359 12.9375 97.9313 13.108C98.2268 13.2784 98.5772 13.3636 98.9825 13.3636C99.2514 13.3636 99.4976 13.3258 99.7211 13.25C99.9446 13.1742 100.136 13.0606 100.295 12.9091C100.454 12.7576 100.575 12.572 100.659 12.3523L102.897 12.5C102.784 13.0379 102.551 13.5076 102.198 13.9091C101.85 14.3068 101.399 14.6174 100.846 14.8409C100.297 15.0606 99.6624 15.1705 98.9427 15.1705ZM107.017 15.1648C106.46 15.1648 105.964 15.0682 105.528 14.875C105.092 14.678 104.748 14.3883 104.494 14.0057C104.244 13.6193 104.119 13.1383 104.119 12.5625C104.119 12.0777 104.208 11.6705 104.386 11.3409C104.564 11.0114 104.806 10.7462 105.113 10.5455C105.42 10.3447 105.768 10.1932 106.159 10.0909C106.553 9.98864 106.965 9.91667 107.397 9.875C107.905 9.82197 108.314 9.77273 108.625 9.72727C108.935 9.67803 109.16 9.60606 109.301 9.51136C109.441 9.41667 109.511 9.27652 109.511 9.09091V9.05682C109.511 8.69697 109.397 8.41856 109.17 8.22159C108.946 8.02462 108.628 7.92614 108.215 7.92614C107.78 7.92614 107.433 8.02273 107.176 8.21591C106.918 8.4053 106.748 8.64394 106.664 8.93182L104.426 8.75C104.539 8.2197 104.763 7.76136 105.096 7.375C105.429 6.98485 105.859 6.68561 106.386 6.47727C106.916 6.26515 107.53 6.15909 108.227 6.15909C108.712 6.15909 109.176 6.21591 109.619 6.32955C110.066 6.44318 110.462 6.61932 110.806 6.85795C111.155 7.09659 111.429 7.40341 111.63 7.77841C111.831 8.14962 111.931 8.5947 111.931 9.11364V15H109.636V13.7898H109.568C109.428 14.0625 109.24 14.303 109.005 14.5114C108.77 14.7159 108.488 14.8769 108.159 14.9943C107.829 15.108 107.448 15.1648 107.017 15.1648ZM107.71 13.4943C108.066 13.4943 108.38 13.4242 108.653 13.2841C108.926 13.1402 109.14 12.947 109.295 12.7045C109.45 12.4621 109.528 12.1875 109.528 11.8807V10.9545C109.452 11.0038 109.348 11.0492 109.215 11.0909C109.087 11.1288 108.941 11.1648 108.778 11.1989C108.615 11.2292 108.452 11.2576 108.289 11.2841C108.126 11.3068 107.979 11.3277 107.846 11.3466C107.562 11.3883 107.314 11.4545 107.102 11.5455C106.89 11.6364 106.725 11.7595 106.607 11.9148C106.49 12.0663 106.431 12.2557 106.431 12.483C106.431 12.8125 106.551 13.0644 106.789 13.2386C107.032 13.4091 107.339 13.4943 107.71 13.4943ZM113.809 15V6.27273H116.156V7.79545H116.247C116.406 7.25379 116.673 6.8447 117.048 6.56818C117.423 6.28788 117.855 6.14773 118.343 6.14773C118.464 6.14773 118.595 6.1553 118.735 6.17045C118.875 6.18561 118.999 6.20644 119.105 6.23295V8.38068C118.991 8.34659 118.834 8.31629 118.633 8.28977C118.432 8.26326 118.249 8.25 118.082 8.25C117.726 8.25 117.408 8.32765 117.127 8.48295C116.851 8.63447 116.631 8.84659 116.468 9.11932C116.309 9.39205 116.23 9.70644 116.23 10.0625V15H113.809ZM125.528 9.26136V11.1818H120.221V9.26136H125.528ZM127.636 15V3.36364H132.227C133.106 3.36364 133.856 3.52083 134.477 3.83523C135.102 4.14583 135.577 4.58712 135.903 5.15909C136.232 5.72727 136.397 6.39583 136.397 7.16477C136.397 7.9375 136.231 8.60227 135.897 9.15909C135.564 9.71212 135.081 10.1364 134.448 10.4318C133.82 10.7273 133.058 10.875 132.164 10.875H129.09V8.89773H131.767C132.236 8.89773 132.626 8.83333 132.937 8.70455C133.248 8.57576 133.479 8.38258 133.63 8.125C133.785 7.86742 133.863 7.54735 133.863 7.16477C133.863 6.77841 133.785 6.45265 133.63 6.1875C133.479 5.92235 133.246 5.72159 132.931 5.58523C132.621 5.44508 132.229 5.375 131.755 5.375H130.096V15H127.636ZM133.92 9.70455L136.812 15H134.096L131.267 9.70455H133.92ZM141.893 15.1705C141.01 15.1705 140.247 14.983 139.603 14.608C138.963 14.2292 138.469 13.7027 138.12 13.0284C137.772 12.3504 137.598 11.5644 137.598 10.6705C137.598 9.76894 137.772 8.98106 138.12 8.30682C138.469 7.62879 138.963 7.10227 139.603 6.72727C140.247 6.34848 141.01 6.15909 141.893 6.15909C142.776 6.15909 143.537 6.34848 144.177 6.72727C144.821 7.10227 145.317 7.62879 145.666 8.30682C146.014 8.98106 146.188 9.76894 146.188 10.6705C146.188 11.5644 146.014 12.3504 145.666 13.0284C145.317 13.7027 144.821 14.2292 144.177 14.608C143.537 14.983 142.776 15.1705 141.893 15.1705ZM141.904 13.2955C142.306 13.2955 142.641 13.1818 142.91 12.9545C143.179 12.7235 143.382 12.4091 143.518 12.0114C143.658 11.6136 143.728 11.161 143.728 10.6534C143.728 10.1458 143.658 9.69318 143.518 9.29545C143.382 8.89773 143.179 8.58333 142.91 8.35227C142.641 8.12121 142.306 8.00568 141.904 8.00568C141.499 8.00568 141.158 8.12121 140.882 8.35227C140.609 8.58333 140.402 8.89773 140.262 9.29545C140.126 9.69318 140.058 10.1458 140.058 10.6534C140.058 11.161 140.126 11.6136 140.262 12.0114C140.402 12.4091 140.609 12.7235 140.882 12.9545C141.158 13.1818 141.499 13.2955 141.904 13.2955ZM153.359 11.2841V6.27273H155.779V15H153.455V13.4148H153.365C153.168 13.9261 152.84 14.3371 152.382 14.6477C151.927 14.9583 151.372 15.1136 150.717 15.1136C150.134 15.1136 149.62 14.9811 149.177 14.7159C148.734 14.4508 148.387 14.0739 148.137 13.5852C147.891 13.0966 147.766 12.5114 147.762 11.8295V6.27273H150.183V11.3977C150.187 11.9129 150.325 12.3201 150.598 12.6193C150.87 12.9186 151.236 13.0682 151.694 13.0682C151.986 13.0682 152.259 13.0019 152.512 12.8693C152.766 12.733 152.971 12.5322 153.126 12.267C153.285 12.0019 153.363 11.6742 153.359 11.2841ZM160.136 9.95455V15H157.715V6.27273H160.022V7.8125H160.125C160.318 7.30492 160.642 6.90341 161.096 6.60795C161.551 6.30871 162.102 6.15909 162.75 6.15909C163.356 6.15909 163.884 6.29167 164.335 6.55682C164.785 6.82197 165.136 7.20076 165.386 7.69318C165.636 8.18182 165.761 8.76515 165.761 9.44318V15H163.34V9.875C163.344 9.34091 163.208 8.92424 162.931 8.625C162.655 8.32197 162.274 8.17045 161.789 8.17045C161.464 8.17045 161.176 8.24053 160.926 8.38068C160.679 8.52083 160.486 8.72538 160.346 8.99432C160.21 9.25947 160.14 9.57955 160.136 9.95455ZM170.884 15.142C170.222 15.142 169.621 14.9716 169.083 14.6307C168.549 14.286 168.125 13.7803 167.811 13.1136C167.5 12.4432 167.345 11.6212 167.345 10.6477C167.345 9.64773 167.506 8.81629 167.828 8.15341C168.15 7.48674 168.578 6.98864 169.112 6.65909C169.65 6.32576 170.239 6.15909 170.879 6.15909C171.367 6.15909 171.775 6.24242 172.1 6.40909C172.43 6.57197 172.695 6.77652 172.896 7.02273C173.1 7.26515 173.256 7.50379 173.362 7.73864H173.436V3.36364H175.85V15H173.464V13.6023H173.362C173.248 13.8447 173.087 14.0852 172.879 14.3239C172.674 14.5587 172.407 14.7538 172.078 14.9091C171.752 15.0644 171.354 15.142 170.884 15.142ZM171.652 13.2159C172.042 13.2159 172.371 13.1098 172.64 12.8977C172.913 12.6818 173.121 12.3807 173.265 11.9943C173.413 11.608 173.487 11.1553 173.487 10.6364C173.487 10.1174 173.415 9.66667 173.271 9.28409C173.127 8.90151 172.919 8.60606 172.646 8.39773C172.373 8.18939 172.042 8.08523 171.652 8.08523C171.254 8.08523 170.919 8.19318 170.646 8.40909C170.373 8.625 170.167 8.92424 170.027 9.30682C169.886 9.68939 169.816 10.1326 169.816 10.6364C169.816 11.1439 169.886 11.5928 170.027 11.983C170.17 12.3693 170.377 12.6723 170.646 12.892C170.919 13.108 171.254 13.2159 171.652 13.2159Z" fill="#4F4C58"/>
<path d="M58.2637 26.4545H62.0563L66.062 36.2273H66.2325L70.2381 26.4545H74.0308V41H71.0478V31.5327H70.9271L67.1629 40.929H65.1316L61.3674 31.4972H61.2467V41H58.2637V26.4545ZM81.4793 41.2131C80.3571 41.2131 79.3912 40.9858 78.5815 40.5312C77.7766 40.072 77.1564 39.4233 76.7207 38.5852C76.2851 37.7424 76.0673 36.7457 76.0673 35.5952C76.0673 34.473 76.2851 33.4882 76.7207 32.6406C77.1564 31.7931 77.7695 31.1326 78.5602 30.6591C79.3557 30.1856 80.2885 29.9489 81.3585 29.9489C82.0782 29.9489 82.7482 30.0649 83.3685 30.2969C83.9935 30.5241 84.538 30.8674 85.002 31.3267C85.4707 31.786 85.8353 32.3636 86.0957 33.0597C86.3562 33.7509 86.4864 34.5606 86.4864 35.4886V36.3196H77.2747V34.4446H83.6384C83.6384 34.009 83.5437 33.6231 83.3543 33.2869C83.1649 32.9508 82.9021 32.688 82.5659 32.4986C82.2345 32.3045 81.8486 32.2074 81.4082 32.2074C80.949 32.2074 80.5418 32.3139 80.1867 32.527C79.8363 32.7353 79.5617 33.017 79.3628 33.3722C79.1639 33.7225 79.0621 34.1132 79.0574 34.544V36.3267C79.0574 36.8665 79.1568 37.3329 79.3557 37.7259C79.5593 38.1188 79.8457 38.4219 80.2151 38.6349C80.5844 38.848 81.0224 38.9545 81.529 38.9545C81.8652 38.9545 82.1729 38.9072 82.4523 38.8125C82.7316 38.7178 82.9707 38.5758 83.1696 38.3864C83.3685 38.197 83.52 37.965 83.6242 37.6903L86.4225 37.875C86.2804 38.5473 85.9892 39.1345 85.5489 39.6364C85.1133 40.1335 84.5498 40.5218 83.8585 40.8011C83.172 41.0758 82.3789 41.2131 81.4793 41.2131ZM91.4864 34.6932V41H88.4608V30.0909H91.3443V32.0156H91.4722C91.7136 31.3812 92.1185 30.8793 92.6867 30.5099C93.2548 30.1359 93.9438 29.9489 94.7534 29.9489C95.511 29.9489 96.1715 30.1146 96.735 30.446C97.2984 30.7775 97.7364 31.2509 98.0489 31.8665C98.3614 32.4773 98.5176 33.2064 98.5176 34.054V41H95.4921V34.5938C95.4968 33.9261 95.3263 33.4053 94.9807 33.0312C94.635 32.6525 94.1592 32.4631 93.5531 32.4631C93.1459 32.4631 92.7861 32.5507 92.4736 32.7259C92.1658 32.901 91.9243 33.1567 91.7492 33.4929C91.5787 33.8243 91.4911 34.2244 91.4864 34.6932ZM106.705 30.0909V32.3636H100.135V30.0909H106.705ZM101.627 27.4773H104.652V37.6477C104.652 37.9271 104.695 38.1449 104.78 38.3011C104.865 38.4527 104.984 38.5592 105.135 38.6207C105.291 38.6823 105.471 38.7131 105.675 38.7131C105.817 38.7131 105.959 38.7012 106.101 38.6776C106.243 38.6491 106.352 38.6278 106.428 38.6136L106.904 40.8651C106.752 40.9124 106.539 40.9669 106.264 41.0284C105.99 41.0947 105.656 41.1349 105.263 41.1491C104.534 41.1776 103.895 41.0805 103.345 40.858C102.801 40.6354 102.377 40.2898 102.074 39.821C101.771 39.3523 101.622 38.7604 101.627 38.0455V27.4773ZM113.487 41.2131C112.384 41.2131 111.43 40.9787 110.625 40.5099C109.825 40.0365 109.207 39.3783 108.772 38.5355C108.336 37.688 108.118 36.7055 108.118 35.5881C108.118 34.4612 108.336 33.4763 108.772 32.6335C109.207 31.786 109.825 31.1278 110.625 30.6591C111.43 30.1856 112.384 29.9489 113.487 29.9489C114.591 29.9489 115.542 30.1856 116.343 30.6591C117.147 31.1278 117.768 31.786 118.203 32.6335C118.639 33.4763 118.857 34.4612 118.857 35.5881C118.857 36.7055 118.639 37.688 118.203 38.5355C117.768 39.3783 117.147 40.0365 116.343 40.5099C115.542 40.9787 114.591 41.2131 113.487 41.2131ZM113.502 38.8693C114.004 38.8693 114.423 38.7273 114.759 38.4432C115.095 38.1544 115.348 37.7614 115.519 37.2642C115.694 36.767 115.781 36.2012 115.781 35.5668C115.781 34.9323 115.694 34.3665 115.519 33.8693C115.348 33.3722 115.095 32.9792 114.759 32.6903C114.423 32.4015 114.004 32.2571 113.502 32.2571C112.995 32.2571 112.569 32.4015 112.223 32.6903C111.882 32.9792 111.624 33.3722 111.449 33.8693C111.279 34.3665 111.193 34.9323 111.193 35.5668C111.193 36.2012 111.279 36.767 111.449 37.2642C111.624 37.7614 111.882 38.1544 112.223 38.4432C112.569 38.7273 112.995 38.8693 113.502 38.8693ZM120.824 41V30.0909H123.757V31.9943H123.871C124.07 31.3172 124.404 30.8059 124.872 30.4602C125.341 30.1098 125.881 29.9347 126.492 29.9347C126.643 29.9347 126.807 29.9441 126.982 29.9631C127.157 29.982 127.311 30.008 127.443 30.0412V32.7259C127.301 32.6832 127.105 32.6454 126.854 32.6122C126.603 32.5791 126.373 32.5625 126.165 32.5625C125.72 32.5625 125.322 32.6596 124.972 32.8537C124.626 33.0431 124.352 33.3082 124.148 33.6491C123.949 33.9901 123.85 34.383 123.85 34.8281V41H120.824ZM138.084 33.2017L135.314 33.3722C135.267 33.1354 135.165 32.9223 135.009 32.733C134.853 32.5388 134.647 32.3849 134.391 32.2713C134.14 32.1529 133.84 32.0938 133.489 32.0938C133.02 32.0938 132.625 32.1932 132.303 32.392C131.981 32.5862 131.82 32.8466 131.82 33.1733C131.82 33.4337 131.924 33.6539 132.133 33.8338C132.341 34.0137 132.698 34.1581 133.205 34.267L135.18 34.6648C136.24 34.8826 137.031 35.233 137.552 35.7159C138.073 36.1989 138.333 36.8333 138.333 37.6193C138.333 38.3343 138.122 38.9616 137.701 39.5014C137.284 40.0412 136.711 40.4626 135.982 40.7656C135.258 41.0639 134.422 41.2131 133.475 41.2131C132.031 41.2131 130.88 40.9124 130.023 40.3111C129.171 39.705 128.672 38.8812 128.525 37.8395L131.501 37.6832C131.591 38.1236 131.808 38.4598 132.154 38.6918C132.5 38.919 132.942 39.0327 133.482 39.0327C134.012 39.0327 134.439 38.9309 134.761 38.7273C135.087 38.5189 135.253 38.2514 135.258 37.9247C135.253 37.6501 135.137 37.4252 134.91 37.25C134.682 37.0701 134.332 36.9328 133.859 36.8381L131.969 36.4616C130.904 36.2486 130.111 35.8793 129.59 35.3537C129.074 34.8281 128.816 34.1581 128.816 33.3438C128.816 32.643 129.005 32.0393 129.384 31.5327C129.768 31.026 130.305 30.6354 130.996 30.3608C131.692 30.0862 132.507 29.9489 133.439 29.9489C134.817 29.9489 135.902 30.2401 136.692 30.8224C137.488 31.4048 137.952 32.1979 138.084 33.2017ZM143.264 34.6932V41H140.238V26.4545H143.178V32.0156H143.306C143.553 31.3717 143.95 30.8674 144.5 30.5028C145.049 30.1335 145.738 29.9489 146.566 29.9489C147.324 29.9489 147.984 30.1146 148.548 30.446C149.116 30.7727 149.556 31.2438 149.869 31.8594C150.186 32.4702 150.342 33.2017 150.338 34.054V41H147.312V34.5938C147.317 33.9214 147.146 33.3982 146.801 33.0241C146.46 32.6501 145.982 32.4631 145.366 32.4631C144.954 32.4631 144.589 32.5507 144.272 32.7259C143.96 32.901 143.714 33.1567 143.534 33.4929C143.358 33.8243 143.268 34.2244 143.264 34.6932ZM152.719 41V30.0909H155.744V41H152.719ZM154.239 28.6847C153.789 28.6847 153.403 28.5355 153.081 28.2372C152.764 27.9342 152.605 27.572 152.605 27.1506C152.605 26.7339 152.764 26.3764 153.081 26.0781C153.403 25.7751 153.789 25.6236 154.239 25.6236C154.688 25.6236 155.072 25.7751 155.389 26.0781C155.711 26.3764 155.872 26.7339 155.872 27.1506C155.872 27.572 155.711 27.9342 155.389 28.2372C155.072 28.5355 154.688 28.6847 154.239 28.6847ZM158.168 45.0909V30.0909H161.151V31.9233H161.286C161.418 31.6297 161.61 31.3314 161.861 31.0284C162.117 30.7206 162.448 30.465 162.855 30.2614C163.267 30.053 163.779 29.9489 164.389 29.9489C165.185 29.9489 165.919 30.1572 166.591 30.5739C167.263 30.9858 167.801 31.6084 168.203 32.4418C168.606 33.2704 168.807 34.3097 168.807 35.5597C168.807 36.7765 168.611 37.804 168.218 38.642C167.829 39.4754 167.299 40.1075 166.627 40.5384C165.959 40.9645 165.211 41.1776 164.382 41.1776C163.795 41.1776 163.296 41.0805 162.884 40.8864C162.477 40.6922 162.143 40.4484 161.882 40.1548C161.622 39.8565 161.423 39.5559 161.286 39.2528H161.193V45.0909H158.168ZM161.129 35.5455C161.129 36.1941 161.219 36.7599 161.399 37.2429C161.579 37.7259 161.84 38.1023 162.181 38.3722C162.522 38.6373 162.936 38.7699 163.424 38.7699C163.916 38.7699 164.333 38.6349 164.674 38.3651C165.014 38.0904 165.272 37.7116 165.448 37.2287C165.628 36.741 165.718 36.1799 165.718 35.5455C165.718 34.9157 165.63 34.3617 165.455 33.8835C165.28 33.4053 165.022 33.0312 164.681 32.7614C164.34 32.4915 163.921 32.3565 163.424 32.3565C162.931 32.3565 162.514 32.4867 162.174 32.7472C161.837 33.0076 161.579 33.3769 161.399 33.8551C161.219 34.3333 161.129 34.8968 161.129 35.5455Z" fill="#333336"/>
<path d="M51.017 76H48.3807L52.3977 64.3636H55.5682L59.5795 76H56.9432L54.0284 67.0227H53.9375L51.017 76ZM50.8523 71.4261H57.0795V73.3466H50.8523V71.4261ZM70.7003 68.4375H68.2116C68.1662 68.1155 68.0734 67.8295 67.9332 67.5795C67.7931 67.3258 67.6132 67.1098 67.3935 66.9318C67.1738 66.7538 66.92 66.6174 66.6321 66.5227C66.348 66.428 66.0393 66.3807 65.706 66.3807C65.1037 66.3807 64.5791 66.5303 64.1321 66.8295C63.6851 67.125 63.3385 67.5568 63.0923 68.125C62.8461 68.6894 62.723 69.375 62.723 70.1818C62.723 71.0114 62.8461 71.7083 63.0923 72.2727C63.3423 72.8371 63.6908 73.2633 64.1378 73.5511C64.5848 73.839 65.1018 73.983 65.6889 73.983C66.0185 73.983 66.3234 73.9394 66.6037 73.8523C66.8878 73.7652 67.1397 73.6383 67.3594 73.4716C67.5791 73.3011 67.7609 73.0947 67.9048 72.8523C68.0526 72.6098 68.1548 72.3333 68.2116 72.0227L70.7003 72.0341C70.6359 72.5682 70.4749 73.0833 70.2173 73.5795C69.9635 74.072 69.6207 74.5133 69.1889 74.9034C68.7609 75.2898 68.2495 75.5966 67.6548 75.8239C67.0639 76.0473 66.3954 76.1591 65.6491 76.1591C64.6113 76.1591 63.6832 75.9242 62.8651 75.4545C62.0507 74.9848 61.4067 74.3049 60.9332 73.4148C60.4635 72.5246 60.2287 71.447 60.2287 70.1818C60.2287 68.9129 60.4673 67.8333 60.9446 66.9432C61.4219 66.053 62.0696 65.375 62.8878 64.9091C63.706 64.4394 64.6264 64.2045 65.6491 64.2045C66.3234 64.2045 66.9484 64.2992 67.5241 64.4886C68.1037 64.678 68.617 64.9545 69.0639 65.3182C69.5109 65.678 69.8745 66.1193 70.1548 66.642C70.4389 67.1648 70.6207 67.7633 70.7003 68.4375ZM72.4645 76V64.3636H74.9247V73.9716H79.9134V76H72.4645ZM84.5639 64.3636H87.3196L89.973 69.375H90.0866L92.7401 64.3636H95.4957L91.2514 71.8864V76H88.8082V71.8864L84.5639 64.3636ZM98.9432 76.1705C98.0455 76.1705 97.2727 75.9886 96.625 75.625C95.9811 75.2576 95.4848 74.7386 95.1364 74.0682C94.7879 73.3939 94.6136 72.5966 94.6136 71.6761C94.6136 70.7784 94.7879 69.9905 95.1364 69.3125C95.4848 68.6345 95.9754 68.1061 96.608 67.7273C97.2443 67.3485 97.9905 67.1591 98.8466 67.1591C99.4223 67.1591 99.9583 67.2519 100.455 67.4375C100.955 67.6193 101.39 67.8939 101.761 68.2614C102.136 68.6288 102.428 69.0909 102.636 69.6477C102.845 70.2008 102.949 70.8485 102.949 71.5909V72.2557H95.5795V70.7557H100.67C100.67 70.4072 100.595 70.0985 100.443 69.8295C100.292 69.5606 100.081 69.3504 99.8125 69.1989C99.5473 69.0436 99.2386 68.9659 98.8864 68.9659C98.5189 68.9659 98.1932 69.0511 97.9091 69.2216C97.6288 69.3883 97.4091 69.6136 97.25 69.8977C97.0909 70.178 97.0095 70.4905 97.0057 70.8352V72.2614C97.0057 72.6932 97.0852 73.0663 97.2443 73.3807C97.4072 73.6951 97.6364 73.9375 97.9318 74.108C98.2273 74.2784 98.5777 74.3636 98.983 74.3636C99.2519 74.3636 99.4981 74.3258 99.7216 74.25C99.9451 74.1742 100.136 74.0606 100.295 73.9091C100.455 73.7576 100.576 73.572 100.659 73.3523L102.898 73.5C102.784 74.0379 102.551 74.5076 102.199 74.9091C101.85 75.3068 101.4 75.6174 100.847 75.8409C100.297 76.0606 99.6629 76.1705 98.9432 76.1705ZM107.017 76.1648C106.46 76.1648 105.964 76.0682 105.528 75.875C105.093 75.678 104.748 75.3883 104.494 75.0057C104.244 74.6193 104.119 74.1383 104.119 73.5625C104.119 73.0777 104.208 72.6705 104.386 72.3409C104.564 72.0114 104.807 71.7462 105.114 71.5455C105.42 71.3447 105.769 71.1932 106.159 71.0909C106.553 70.9886 106.966 70.9167 107.398 70.875C107.905 70.822 108.314 70.7727 108.625 70.7273C108.936 70.678 109.161 70.6061 109.301 70.5114C109.441 70.4167 109.511 70.2765 109.511 70.0909V70.0568C109.511 69.697 109.398 69.4186 109.17 69.2216C108.947 69.0246 108.629 68.9261 108.216 68.9261C107.78 68.9261 107.434 69.0227 107.176 69.2159C106.919 69.4053 106.748 69.6439 106.665 69.9318L104.426 69.75C104.54 69.2197 104.763 68.7614 105.097 68.375C105.43 67.9848 105.86 67.6856 106.386 67.4773C106.917 67.2652 107.53 67.1591 108.227 67.1591C108.712 67.1591 109.176 67.2159 109.619 67.3295C110.066 67.4432 110.462 67.6193 110.807 67.858C111.155 68.0966 111.43 68.4034 111.631 68.7784C111.831 69.1496 111.932 69.5947 111.932 70.1136V76H109.636V74.7898H109.568C109.428 75.0625 109.241 75.303 109.006 75.5114C108.771 75.7159 108.489 75.8769 108.159 75.9943C107.83 76.108 107.449 76.1648 107.017 76.1648ZM107.71 74.4943C108.066 74.4943 108.381 74.4242 108.653 74.2841C108.926 74.1402 109.14 73.947 109.295 73.7045C109.451 73.4621 109.528 73.1875 109.528 72.8807V71.9545C109.453 72.0038 109.348 72.0492 109.216 72.0909C109.087 72.1288 108.941 72.1648 108.778 72.1989C108.616 72.2292 108.453 72.2576 108.29 72.2841C108.127 72.3068 107.979 72.3277 107.847 72.3466C107.563 72.3883 107.314 72.4545 107.102 72.5455C106.89 72.6364 106.725 72.7595 106.608 72.9148C106.491 73.0663 106.432 73.2557 106.432 73.483C106.432 73.8125 106.551 74.0644 106.79 74.2386C107.032 74.4091 107.339 74.4943 107.71 74.4943ZM113.81 76V67.2727H116.156V68.7955H116.247C116.406 68.2538 116.673 67.8447 117.048 67.5682C117.423 67.2879 117.855 67.1477 118.344 67.1477C118.465 67.1477 118.596 67.1553 118.736 67.1705C118.876 67.1856 118.999 67.2064 119.105 67.233V69.3807C118.991 69.3466 118.834 69.3163 118.634 69.2898C118.433 69.2633 118.249 69.25 118.082 69.25C117.726 69.25 117.408 69.3277 117.128 69.483C116.851 69.6345 116.632 69.8466 116.469 70.1193C116.31 70.392 116.23 70.7064 116.23 71.0625V76H113.81ZM125.528 70.2614V72.1818H120.222V70.2614H125.528ZM127.636 76V64.3636H132.227C133.106 64.3636 133.856 64.5208 134.477 64.8352C135.102 65.1458 135.578 65.5871 135.903 66.1591C136.233 66.7273 136.398 67.3958 136.398 68.1648C136.398 68.9375 136.231 69.6023 135.898 70.1591C135.564 70.7121 135.081 71.1364 134.449 71.4318C133.82 71.7273 133.059 71.875 132.165 71.875H129.091V69.8977H131.767C132.237 69.8977 132.627 69.8333 132.938 69.7045C133.248 69.5758 133.479 69.3826 133.631 69.125C133.786 68.8674 133.864 68.5473 133.864 68.1648C133.864 67.7784 133.786 67.4527 133.631 67.1875C133.479 66.9223 133.246 66.7216 132.932 66.5852C132.621 66.4451 132.229 66.375 131.756 66.375H130.097V76H127.636ZM133.92 70.7045L136.812 76H134.097L131.267 70.7045H133.92ZM141.893 76.1705C141.011 76.1705 140.248 75.983 139.604 75.608C138.964 75.2292 138.469 74.7027 138.121 74.0284C137.772 73.3504 137.598 72.5644 137.598 71.6705C137.598 70.7689 137.772 69.9811 138.121 69.3068C138.469 68.6288 138.964 68.1023 139.604 67.7273C140.248 67.3485 141.011 67.1591 141.893 67.1591C142.776 67.1591 143.537 67.3485 144.178 67.7273C144.821 68.1023 145.318 68.6288 145.666 69.3068C146.015 69.9811 146.189 70.7689 146.189 71.6705C146.189 72.5644 146.015 73.3504 145.666 74.0284C145.318 74.7027 144.821 75.2292 144.178 75.608C143.537 75.983 142.776 76.1705 141.893 76.1705ZM141.905 74.2955C142.306 74.2955 142.642 74.1818 142.911 73.9545C143.179 73.7235 143.382 73.4091 143.518 73.0114C143.659 72.6136 143.729 72.161 143.729 71.6534C143.729 71.1458 143.659 70.6932 143.518 70.2955C143.382 69.8977 143.179 69.5833 142.911 69.3523C142.642 69.1212 142.306 69.0057 141.905 69.0057C141.5 69.0057 141.159 69.1212 140.882 69.3523C140.609 69.5833 140.403 69.8977 140.263 70.2955C140.126 70.6932 140.058 71.1458 140.058 71.6534C140.058 72.161 140.126 72.6136 140.263 73.0114C140.403 73.4091 140.609 73.7235 140.882 73.9545C141.159 74.1818 141.5 74.2955 141.905 74.2955ZM153.359 72.2841V67.2727H155.78V76H153.456V74.4148H153.365C153.168 74.9261 152.84 75.3371 152.382 75.6477C151.928 75.9583 151.373 76.1136 150.717 76.1136C150.134 76.1136 149.621 75.9811 149.178 75.7159C148.734 75.4508 148.388 75.0739 148.138 74.5852C147.892 74.0966 147.767 73.5114 147.763 72.8295V67.2727H150.183V72.3977C150.187 72.9129 150.325 73.3201 150.598 73.6193C150.871 73.9186 151.236 74.0682 151.695 74.0682C151.986 74.0682 152.259 74.0019 152.513 73.8693C152.767 73.733 152.971 73.5322 153.126 73.267C153.286 73.0019 153.363 72.6742 153.359 72.2841ZM160.136 70.9545V76H157.716V67.2727H160.023V68.8125H160.125C160.318 68.3049 160.642 67.9034 161.097 67.608C161.551 67.3087 162.102 67.1591 162.75 67.1591C163.356 67.1591 163.884 67.2917 164.335 67.5568C164.786 67.822 165.136 68.2008 165.386 68.6932C165.636 69.1818 165.761 69.7652 165.761 70.4432V76H163.341V70.875C163.345 70.3409 163.208 69.9242 162.932 69.625C162.655 69.322 162.275 69.1705 161.79 69.1705C161.464 69.1705 161.176 69.2405 160.926 69.3807C160.68 69.5208 160.487 69.7254 160.347 69.9943C160.21 70.2595 160.14 70.5795 160.136 70.9545ZM170.885 76.142C170.222 76.142 169.622 75.9716 169.084 75.6307C168.55 75.286 168.125 74.7803 167.811 74.1136C167.5 73.4432 167.345 72.6212 167.345 71.6477C167.345 70.6477 167.506 69.8163 167.828 69.1534C168.15 68.4867 168.578 67.9886 169.112 67.6591C169.65 67.3258 170.239 67.1591 170.879 67.1591C171.368 67.1591 171.775 67.2424 172.101 67.4091C172.43 67.572 172.696 67.7765 172.896 68.0227C173.101 68.2652 173.256 68.5038 173.362 68.7386H173.436V64.3636H175.851V76H173.464V74.6023H173.362C173.249 74.8447 173.088 75.0852 172.879 75.3239C172.675 75.5587 172.408 75.7538 172.078 75.9091C171.752 76.0644 171.355 76.142 170.885 76.142ZM171.652 74.2159C172.042 74.2159 172.372 74.1098 172.641 73.8977C172.913 73.6818 173.122 73.3807 173.266 72.9943C173.413 72.608 173.487 72.1553 173.487 71.6364C173.487 71.1174 173.415 70.6667 173.271 70.2841C173.127 69.9015 172.919 69.6061 172.646 69.3977C172.374 69.1894 172.042 69.0852 171.652 69.0852C171.254 69.0852 170.919 69.1932 170.646 69.4091C170.374 69.625 170.167 69.9242 170.027 70.3068C169.887 70.6894 169.817 71.1326 169.817 71.6364C169.817 72.1439 169.887 72.5928 170.027 72.983C170.171 73.3693 170.377 73.6723 170.646 73.892C170.919 74.108 171.254 74.2159 171.652 74.2159Z" fill="#4F4C58"/>
<path d="M58.2642 87.4545H62.0568L66.0625 97.2273H66.233L70.2386 87.4545H74.0312V102H71.0483V92.5327H70.9276L67.1634 101.929H65.1321L61.3679 92.4972H61.2472V102H58.2642V87.4545ZM81.4798 102.213C80.3576 102.213 79.3917 101.986 78.582 101.531C77.7771 101.072 77.1568 100.423 76.7212 99.5852C76.2856 98.7424 76.0678 97.7457 76.0678 96.5952C76.0678 95.473 76.2856 94.4882 76.7212 93.6406C77.1568 92.7931 77.77 92.1326 78.5607 91.6591C79.3562 91.1856 80.2889 90.9489 81.359 90.9489C82.0787 90.9489 82.7487 91.0649 83.369 91.2969C83.994 91.5241 84.5385 91.8674 85.0025 92.3267C85.4712 92.786 85.8358 93.3636 86.0962 94.0597C86.3567 94.7509 86.4869 95.5606 86.4869 96.4886V97.3196H77.2752V95.4446H83.6388C83.6388 95.009 83.5442 94.6231 83.3548 94.2869C83.1654 93.9508 82.9026 93.688 82.5664 93.4986C82.235 93.3045 81.8491 93.2074 81.4087 93.2074C80.9495 93.2074 80.5423 93.3139 80.1871 93.527C79.8368 93.7353 79.5621 94.017 79.3633 94.3722C79.1644 94.7225 79.0626 95.1132 79.0579 95.544V97.3267C79.0579 97.8665 79.1573 98.3329 79.3562 98.7259C79.5598 99.1188 79.8462 99.4219 80.2156 99.6349C80.5849 99.848 81.0228 99.9545 81.5295 99.9545C81.8656 99.9545 82.1734 99.9072 82.4528 99.8125C82.7321 99.7178 82.9712 99.5758 83.1701 99.3864C83.369 99.197 83.5205 98.965 83.6246 98.6903L86.4229 98.875C86.2809 99.5473 85.9897 100.134 85.5494 100.636C85.1138 101.134 84.5503 101.522 83.859 101.801C83.1725 102.076 82.3794 102.213 81.4798 102.213ZM91.4869 95.6932V102H88.4613V91.0909H91.3448V93.0156H91.4727C91.7141 92.3812 92.119 91.8793 92.6871 91.5099C93.2553 91.1359 93.9442 90.9489 94.7539 90.9489C95.5115 90.9489 96.172 91.1146 96.7354 91.446C97.2989 91.7775 97.7369 92.2509 98.0494 92.8665C98.3619 93.4773 98.5181 94.2064 98.5181 95.054V102H95.4925V95.5938C95.4973 94.9261 95.3268 94.4053 94.9812 94.0312C94.6355 93.6525 94.1597 93.4631 93.5536 93.4631C93.1464 93.4631 92.7866 93.5507 92.4741 93.7259C92.1663 93.901 91.9248 94.1567 91.7496 94.4929C91.5792 94.8243 91.4916 95.2244 91.4869 95.6932ZM106.705 91.0909V93.3636H100.136V91.0909H106.705ZM101.627 88.4773H104.653V98.6477C104.653 98.9271 104.695 99.1449 104.781 99.3011C104.866 99.4527 104.984 99.5592 105.136 99.6207C105.292 99.6823 105.472 99.7131 105.675 99.7131C105.817 99.7131 105.96 99.7012 106.102 99.6776C106.244 99.6491 106.353 99.6278 106.428 99.6136L106.904 101.865C106.753 101.912 106.54 101.967 106.265 102.028C105.99 102.095 105.656 102.135 105.263 102.149C104.534 102.178 103.895 102.08 103.346 101.858C102.801 101.635 102.378 101.29 102.075 100.821C101.772 100.352 101.622 99.7604 101.627 99.0455V88.4773ZM113.488 102.213C112.385 102.213 111.431 101.979 110.626 101.51C109.826 101.036 109.208 100.378 108.772 99.5355C108.336 98.688 108.119 97.7055 108.119 96.5881C108.119 95.4612 108.336 94.4763 108.772 93.6335C109.208 92.786 109.826 92.1278 110.626 91.6591C111.431 91.1856 112.385 90.9489 113.488 90.9489C114.591 90.9489 115.543 91.1856 116.343 91.6591C117.148 92.1278 117.768 92.786 118.204 93.6335C118.639 94.4763 118.857 95.4612 118.857 96.5881C118.857 97.7055 118.639 98.688 118.204 99.5355C117.768 100.378 117.148 101.036 116.343 101.51C115.543 101.979 114.591 102.213 113.488 102.213ZM113.502 99.8693C114.004 99.8693 114.423 99.7273 114.759 99.4432C115.095 99.1544 115.349 98.7614 115.519 98.2642C115.694 97.767 115.782 97.2012 115.782 96.5668C115.782 95.9323 115.694 95.3665 115.519 94.8693C115.349 94.3722 115.095 93.9792 114.759 93.6903C114.423 93.4015 114.004 93.2571 113.502 93.2571C112.996 93.2571 112.569 93.4015 112.224 93.6903C111.883 93.9792 111.625 94.3722 111.45 94.8693C111.279 95.3665 111.194 95.9323 111.194 96.5668C111.194 97.2012 111.279 97.767 111.45 98.2642C111.625 98.7614 111.883 99.1544 112.224 99.4432C112.569 99.7273 112.996 99.8693 113.502 99.8693ZM120.825 102V91.0909H123.758V92.9943H123.871C124.07 92.3172 124.404 91.8059 124.873 91.4602C125.342 91.1098 125.881 90.9347 126.492 90.9347C126.644 90.9347 126.807 90.9441 126.982 90.9631C127.157 90.982 127.311 91.008 127.444 91.0412V93.7259C127.302 93.6832 127.105 93.6454 126.854 93.6122C126.603 93.5791 126.374 93.5625 126.165 93.5625C125.72 93.5625 125.323 93.6596 124.972 93.8537C124.627 94.0431 124.352 94.3082 124.148 94.6491C123.95 94.9901 123.85 95.383 123.85 95.8281V102H120.825ZM138.085 94.2017L135.315 94.3722C135.268 94.1354 135.166 93.9223 135.01 93.733C134.853 93.5388 134.647 93.3849 134.392 93.2713C134.141 93.1529 133.84 93.0938 133.49 93.0938C133.021 93.0938 132.626 93.1932 132.304 93.392C131.982 93.5862 131.821 93.8466 131.821 94.1733C131.821 94.4337 131.925 94.6539 132.133 94.8338C132.342 95.0137 132.699 95.1581 133.206 95.267L135.18 95.6648C136.241 95.8826 137.031 96.233 137.552 96.7159C138.073 97.1989 138.333 97.8333 138.333 98.6193C138.333 99.3343 138.123 99.9616 137.701 100.501C137.285 101.041 136.712 101.463 135.983 101.766C135.258 102.064 134.422 102.213 133.475 102.213C132.031 102.213 130.881 101.912 130.024 101.311C129.172 100.705 128.672 99.8812 128.525 98.8395L131.501 98.6832C131.591 99.1236 131.809 99.4598 132.154 99.6918C132.5 99.919 132.943 100.033 133.483 100.033C134.013 100.033 134.439 99.9309 134.761 99.7273C135.088 99.5189 135.253 99.2514 135.258 98.9247C135.253 98.6501 135.137 98.4252 134.91 98.25C134.683 98.0701 134.333 97.9328 133.859 97.8381L131.97 97.4616C130.904 97.2486 130.111 96.8793 129.591 96.3537C129.074 95.8281 128.816 95.1581 128.816 94.3438C128.816 93.643 129.006 93.0393 129.385 92.5327C129.768 92.026 130.306 91.6354 130.997 91.3608C131.693 91.0862 132.507 90.9489 133.44 90.9489C134.818 90.9489 135.902 91.2401 136.693 91.8224C137.488 92.4048 137.952 93.1979 138.085 94.2017ZM143.264 95.6932V102H140.239V87.4545H143.179V93.0156H143.307C143.553 92.3717 143.951 91.8674 144.5 91.5028C145.049 91.1335 145.738 90.9489 146.567 90.9489C147.324 90.9489 147.985 91.1146 148.548 91.446C149.116 91.7727 149.557 92.2438 149.869 92.8594C150.187 93.4702 150.343 94.2017 150.338 95.054V102H147.312V95.5938C147.317 94.9214 147.147 94.3982 146.801 94.0241C146.46 93.6501 145.982 93.4631 145.366 93.4631C144.955 93.4631 144.59 93.5507 144.273 93.7259C143.96 93.901 143.714 94.1567 143.534 94.4929C143.359 94.8243 143.269 95.2244 143.264 95.6932ZM152.719 102V91.0909H155.745V102H152.719ZM154.239 89.6847C153.789 89.6847 153.403 89.5355 153.081 89.2372C152.764 88.9342 152.605 88.572 152.605 88.1506C152.605 87.7339 152.764 87.3764 153.081 87.0781C153.403 86.7751 153.789 86.6236 154.239 86.6236C154.689 86.6236 155.072 86.7751 155.39 87.0781C155.712 87.3764 155.873 87.7339 155.873 88.1506C155.873 88.572 155.712 88.9342 155.39 89.2372C155.072 89.5355 154.689 89.6847 154.239 89.6847ZM158.168 106.091V91.0909H161.151V92.9233H161.286C161.419 92.6297 161.611 92.3314 161.862 92.0284C162.117 91.7206 162.449 91.465 162.856 91.2614C163.268 91.053 163.779 90.9489 164.39 90.9489C165.185 90.9489 165.919 91.1572 166.592 91.5739C167.264 91.9858 167.801 92.6084 168.204 93.4418C168.606 94.2704 168.808 95.3097 168.808 96.5597C168.808 97.7765 168.611 98.804 168.218 99.642C167.83 100.475 167.299 101.107 166.627 101.538C165.96 101.964 165.211 102.178 164.383 102.178C163.796 102.178 163.296 102.08 162.884 101.886C162.477 101.692 162.143 101.448 161.883 101.155C161.622 100.857 161.424 100.556 161.286 100.253H161.194V106.091H158.168ZM161.13 96.5455C161.13 97.1941 161.22 97.7599 161.4 98.2429C161.58 98.7259 161.84 99.1023 162.181 99.3722C162.522 99.6373 162.936 99.7699 163.424 99.7699C163.916 99.7699 164.333 99.6349 164.674 99.3651C165.015 99.0904 165.273 98.7116 165.448 98.2287C165.628 97.741 165.718 97.1799 165.718 96.5455C165.718 95.9157 165.63 95.3617 165.455 94.8835C165.28 94.4053 165.022 94.0312 164.681 93.7614C164.34 93.4915 163.921 93.3565 163.424 93.3565C162.932 93.3565 162.515 93.4867 162.174 93.7472C161.838 94.0076 161.58 94.3769 161.4 94.8551C161.22 95.3333 161.13 95.8968 161.13 96.5455Z" fill="#31312D"/>
<path d="M54.0166 144H51.3802L55.3972 132.364H58.5677L62.5791 144H59.9427L57.0279 135.023H56.937L54.0166 144ZM53.8518 139.426H60.0791V141.347H53.8518V139.426ZM73.6998 136.438H71.2112C71.1657 136.116 71.0729 135.83 70.9328 135.58C70.7926 135.326 70.6127 135.11 70.393 134.932C70.1733 134.754 69.9195 134.617 69.6316 134.523C69.3475 134.428 69.0388 134.381 68.7055 134.381C68.1032 134.381 67.5786 134.53 67.1316 134.83C66.6846 135.125 66.3381 135.557 66.0918 136.125C65.8456 136.689 65.7225 137.375 65.7225 138.182C65.7225 139.011 65.8456 139.708 66.0918 140.273C66.3418 140.837 66.6903 141.263 67.1373 141.551C67.5843 141.839 68.1013 141.983 68.6884 141.983C69.018 141.983 69.3229 141.939 69.6032 141.852C69.8873 141.765 70.1392 141.638 70.3589 141.472C70.5786 141.301 70.7604 141.095 70.9043 140.852C71.0521 140.61 71.1543 140.333 71.2112 140.023L73.6998 140.034C73.6354 140.568 73.4744 141.083 73.2168 141.58C72.9631 142.072 72.6203 142.513 72.1884 142.903C71.7604 143.29 71.249 143.597 70.6543 143.824C70.0634 144.047 69.3949 144.159 68.6487 144.159C67.6108 144.159 66.6828 143.924 65.8646 143.455C65.0502 142.985 64.4062 142.305 63.9328 141.415C63.4631 140.525 63.2282 139.447 63.2282 138.182C63.2282 136.913 63.4668 135.833 63.9441 134.943C64.4214 134.053 65.0691 133.375 65.8873 132.909C66.7055 132.439 67.6259 132.205 68.6487 132.205C69.3229 132.205 69.9479 132.299 70.5237 132.489C71.1032 132.678 71.6165 132.955 72.0634 133.318C72.5104 133.678 72.874 134.119 73.1543 134.642C73.4384 135.165 73.6203 135.763 73.6998 136.438ZM75.464 144V132.364H77.9242V141.972H82.9129V144H75.464ZM87.5634 132.364H90.3191L92.9725 137.375H93.0862L95.7396 132.364H98.4953L94.2509 139.886V144H91.8078V139.886L87.5634 132.364ZM101.943 144.17C101.045 144.17 100.272 143.989 99.6245 143.625C98.9806 143.258 98.4844 142.739 98.1359 142.068C97.7874 141.394 97.6131 140.597 97.6131 139.676C97.6131 138.778 97.7874 137.991 98.1359 137.312C98.4844 136.634 98.9749 136.106 99.6075 135.727C100.244 135.348 100.99 135.159 101.846 135.159C102.422 135.159 102.958 135.252 103.454 135.438C103.954 135.619 104.39 135.894 104.761 136.261C105.136 136.629 105.428 137.091 105.636 137.648C105.844 138.201 105.948 138.848 105.948 139.591V140.256H98.5791V138.756H103.67C103.67 138.407 103.594 138.098 103.443 137.83C103.291 137.561 103.081 137.35 102.812 137.199C102.547 137.044 102.238 136.966 101.886 136.966C101.518 136.966 101.193 137.051 100.909 137.222C100.628 137.388 100.409 137.614 100.25 137.898C100.09 138.178 100.009 138.491 100.005 138.835V140.261C100.005 140.693 100.085 141.066 100.244 141.381C100.407 141.695 100.636 141.938 100.931 142.108C101.227 142.278 101.577 142.364 101.982 142.364C102.251 142.364 102.498 142.326 102.721 142.25C102.945 142.174 103.136 142.061 103.295 141.909C103.454 141.758 103.575 141.572 103.659 141.352L105.897 141.5C105.784 142.038 105.551 142.508 105.198 142.909C104.85 143.307 104.399 143.617 103.846 143.841C103.297 144.061 102.662 144.17 101.943 144.17ZM110.017 144.165C109.46 144.165 108.964 144.068 108.528 143.875C108.092 143.678 107.748 143.388 107.494 143.006C107.244 142.619 107.119 142.138 107.119 141.562C107.119 141.078 107.208 140.67 107.386 140.341C107.564 140.011 107.806 139.746 108.113 139.545C108.42 139.345 108.768 139.193 109.159 139.091C109.553 138.989 109.965 138.917 110.397 138.875C110.905 138.822 111.314 138.773 111.625 138.727C111.935 138.678 112.16 138.606 112.301 138.511C112.441 138.417 112.511 138.277 112.511 138.091V138.057C112.511 137.697 112.397 137.419 112.17 137.222C111.946 137.025 111.628 136.926 111.215 136.926C110.78 136.926 110.433 137.023 110.176 137.216C109.918 137.405 109.748 137.644 109.664 137.932L107.426 137.75C107.539 137.22 107.763 136.761 108.096 136.375C108.429 135.985 108.859 135.686 109.386 135.477C109.916 135.265 110.53 135.159 111.227 135.159C111.712 135.159 112.176 135.216 112.619 135.33C113.066 135.443 113.462 135.619 113.806 135.858C114.155 136.097 114.429 136.403 114.63 136.778C114.831 137.15 114.931 137.595 114.931 138.114V144H112.636V142.79H112.568C112.428 143.062 112.24 143.303 112.005 143.511C111.77 143.716 111.488 143.877 111.159 143.994C110.829 144.108 110.448 144.165 110.017 144.165ZM110.71 142.494C111.066 142.494 111.38 142.424 111.653 142.284C111.926 142.14 112.14 141.947 112.295 141.705C112.45 141.462 112.528 141.187 112.528 140.881V139.955C112.452 140.004 112.348 140.049 112.215 140.091C112.087 140.129 111.941 140.165 111.778 140.199C111.615 140.229 111.452 140.258 111.289 140.284C111.126 140.307 110.979 140.328 110.846 140.347C110.562 140.388 110.314 140.455 110.102 140.545C109.89 140.636 109.725 140.759 109.607 140.915C109.49 141.066 109.431 141.256 109.431 141.483C109.431 141.812 109.551 142.064 109.789 142.239C110.032 142.409 110.339 142.494 110.71 142.494ZM116.809 144V135.273H119.156V136.795H119.247C119.406 136.254 119.673 135.845 120.048 135.568C120.423 135.288 120.855 135.148 121.343 135.148C121.464 135.148 121.595 135.155 121.735 135.17C121.875 135.186 121.999 135.206 122.105 135.233V137.381C121.991 137.347 121.834 137.316 121.633 137.29C121.432 137.263 121.249 137.25 121.082 137.25C120.726 137.25 120.408 137.328 120.127 137.483C119.851 137.634 119.631 137.847 119.468 138.119C119.309 138.392 119.23 138.706 119.23 139.062V144H116.809ZM128.528 138.261V140.182H123.221V138.261H128.528ZM130.636 144V132.364H135.227C136.106 132.364 136.856 132.521 137.477 132.835C138.102 133.146 138.577 133.587 138.903 134.159C139.232 134.727 139.397 135.396 139.397 136.165C139.397 136.937 139.231 137.602 138.897 138.159C138.564 138.712 138.081 139.136 137.448 139.432C136.82 139.727 136.058 139.875 135.164 139.875H132.09V137.898H134.767C135.236 137.898 135.626 137.833 135.937 137.705C136.248 137.576 136.479 137.383 136.63 137.125C136.785 136.867 136.863 136.547 136.863 136.165C136.863 135.778 136.785 135.453 136.63 135.188C136.479 134.922 136.246 134.722 135.931 134.585C135.621 134.445 135.229 134.375 134.755 134.375H133.096V144H130.636ZM136.92 138.705L139.812 144H137.096L134.267 138.705H136.92ZM144.893 144.17C144.01 144.17 143.247 143.983 142.603 143.608C141.963 143.229 141.469 142.703 141.12 142.028C140.772 141.35 140.598 140.564 140.598 139.67C140.598 138.769 140.772 137.981 141.12 137.307C141.469 136.629 141.963 136.102 142.603 135.727C143.247 135.348 144.01 135.159 144.893 135.159C145.776 135.159 146.537 135.348 147.177 135.727C147.821 136.102 148.317 136.629 148.666 137.307C149.014 137.981 149.188 138.769 149.188 139.67C149.188 140.564 149.014 141.35 148.666 142.028C148.317 142.703 147.821 143.229 147.177 143.608C146.537 143.983 145.776 144.17 144.893 144.17ZM144.904 142.295C145.306 142.295 145.641 142.182 145.91 141.955C146.179 141.723 146.382 141.409 146.518 141.011C146.658 140.614 146.728 140.161 146.728 139.653C146.728 139.146 146.658 138.693 146.518 138.295C146.382 137.898 146.179 137.583 145.91 137.352C145.641 137.121 145.306 137.006 144.904 137.006C144.499 137.006 144.158 137.121 143.882 137.352C143.609 137.583 143.402 137.898 143.262 138.295C143.126 138.693 143.058 139.146 143.058 139.653C143.058 140.161 143.126 140.614 143.262 141.011C143.402 141.409 143.609 141.723 143.882 141.955C144.158 142.182 144.499 142.295 144.904 142.295ZM156.359 140.284V135.273H158.779V144H156.455V142.415H156.365C156.168 142.926 155.84 143.337 155.382 143.648C154.927 143.958 154.372 144.114 153.717 144.114C153.134 144.114 152.62 143.981 152.177 143.716C151.734 143.451 151.387 143.074 151.137 142.585C150.891 142.097 150.766 141.511 150.762 140.83V135.273H153.183V140.398C153.187 140.913 153.325 141.32 153.598 141.619C153.87 141.919 154.236 142.068 154.694 142.068C154.986 142.068 155.259 142.002 155.512 141.869C155.766 141.733 155.971 141.532 156.126 141.267C156.285 141.002 156.363 140.674 156.359 140.284ZM163.136 138.955V144H160.715V135.273H163.022V136.812H163.125C163.318 136.305 163.642 135.903 164.096 135.608C164.551 135.309 165.102 135.159 165.75 135.159C166.356 135.159 166.884 135.292 167.335 135.557C167.785 135.822 168.136 136.201 168.386 136.693C168.636 137.182 168.761 137.765 168.761 138.443V144H166.34V138.875C166.344 138.341 166.208 137.924 165.931 137.625C165.655 137.322 165.274 137.17 164.789 137.17C164.464 137.17 164.176 137.241 163.926 137.381C163.679 137.521 163.486 137.725 163.346 137.994C163.21 138.259 163.14 138.58 163.136 138.955ZM173.884 144.142C173.222 144.142 172.621 143.972 172.083 143.631C171.549 143.286 171.125 142.78 170.811 142.114C170.5 141.443 170.345 140.621 170.345 139.648C170.345 138.648 170.506 137.816 170.828 137.153C171.15 136.487 171.578 135.989 172.112 135.659C172.65 135.326 173.239 135.159 173.879 135.159C174.367 135.159 174.775 135.242 175.1 135.409C175.43 135.572 175.695 135.777 175.896 136.023C176.1 136.265 176.256 136.504 176.362 136.739H176.436V132.364H178.85V144H176.464V142.602H176.362C176.248 142.845 176.087 143.085 175.879 143.324C175.674 143.559 175.407 143.754 175.078 143.909C174.752 144.064 174.354 144.142 173.884 144.142ZM174.652 142.216C175.042 142.216 175.371 142.11 175.64 141.898C175.913 141.682 176.121 141.381 176.265 140.994C176.413 140.608 176.487 140.155 176.487 139.636C176.487 139.117 176.415 138.667 176.271 138.284C176.127 137.902 175.919 137.606 175.646 137.398C175.373 137.189 175.042 137.085 174.652 137.085C174.254 137.085 173.919 137.193 173.646 137.409C173.373 137.625 173.167 137.924 173.027 138.307C172.886 138.689 172.816 139.133 172.816 139.636C172.816 140.144 172.886 140.593 173.027 140.983C173.17 141.369 173.377 141.672 173.646 141.892C173.919 142.108 174.254 142.216 174.652 142.216Z" fill="#E6E6E5"/>
<path d="M61.2637 155.455H65.0563L69.062 165.227H69.2325L73.2381 155.455H77.0308V170H74.0478V160.533H73.9271L70.1629 169.929H68.1316L64.3674 160.497H64.2467V170H61.2637V155.455ZM84.4793 170.213C83.3571 170.213 82.3912 169.986 81.5815 169.531C80.7766 169.072 80.1564 168.423 79.7207 167.585C79.2851 166.742 79.0673 165.746 79.0673 164.595C79.0673 163.473 79.2851 162.488 79.7207 161.641C80.1564 160.793 80.7695 160.133 81.5602 159.659C82.3557 159.186 83.2885 158.949 84.3585 158.949C85.0782 158.949 85.7482 159.065 86.3685 159.297C86.9935 159.524 87.538 159.867 88.002 160.327C88.4707 160.786 88.8353 161.364 89.0957 162.06C89.3562 162.751 89.4864 163.561 89.4864 164.489V165.32H80.2747V163.445H86.6384C86.6384 163.009 86.5437 162.623 86.3543 162.287C86.1649 161.951 85.9021 161.688 85.5659 161.499C85.2345 161.304 84.8486 161.207 84.4082 161.207C83.949 161.207 83.5418 161.314 83.1867 161.527C82.8363 161.735 82.5617 162.017 82.3628 162.372C82.1639 162.723 82.0621 163.113 82.0574 163.544V165.327C82.0574 165.866 82.1568 166.333 82.3557 166.726C82.5593 167.119 82.8457 167.422 83.2151 167.635C83.5844 167.848 84.0224 167.955 84.529 167.955C84.8652 167.955 85.1729 167.907 85.4523 167.812C85.7316 167.718 85.9707 167.576 86.1696 167.386C86.3685 167.197 86.52 166.965 86.6242 166.69L89.4225 166.875C89.2804 167.547 88.9892 168.134 88.5489 168.636C88.1133 169.134 87.5498 169.522 86.8585 169.801C86.172 170.076 85.3789 170.213 84.4793 170.213ZM94.4864 163.693V170H91.4608V159.091H94.3443V161.016H94.4722C94.7136 160.381 95.1185 159.879 95.6867 159.51C96.2548 159.136 96.9438 158.949 97.7534 158.949C98.511 158.949 99.1715 159.115 99.735 159.446C100.298 159.777 100.736 160.251 101.049 160.866C101.361 161.477 101.518 162.206 101.518 163.054V170H98.4921V163.594C98.4968 162.926 98.3263 162.405 97.9807 162.031C97.635 161.652 97.1592 161.463 96.5531 161.463C96.1459 161.463 95.7861 161.551 95.4736 161.726C95.1658 161.901 94.9243 162.157 94.7492 162.493C94.5787 162.824 94.4911 163.224 94.4864 163.693ZM109.705 159.091V161.364H103.135V159.091H109.705ZM104.627 156.477H107.652V166.648C107.652 166.927 107.695 167.145 107.78 167.301C107.865 167.453 107.984 167.559 108.135 167.621C108.291 167.682 108.471 167.713 108.675 167.713C108.817 167.713 108.959 167.701 109.101 167.678C109.243 167.649 109.352 167.628 109.428 167.614L109.904 169.865C109.752 169.912 109.539 169.967 109.264 170.028C108.99 170.095 108.656 170.135 108.263 170.149C107.534 170.178 106.895 170.08 106.345 169.858C105.801 169.635 105.377 169.29 105.074 168.821C104.771 168.352 104.622 167.76 104.627 167.045V156.477ZM116.487 170.213C115.384 170.213 114.43 169.979 113.625 169.51C112.825 169.036 112.207 168.378 111.772 167.536C111.336 166.688 111.118 165.705 111.118 164.588C111.118 163.461 111.336 162.476 111.772 161.634C112.207 160.786 112.825 160.128 113.625 159.659C114.43 159.186 115.384 158.949 116.487 158.949C117.591 158.949 118.542 159.186 119.343 159.659C120.147 160.128 120.768 160.786 121.203 161.634C121.639 162.476 121.857 163.461 121.857 164.588C121.857 165.705 121.639 166.688 121.203 167.536C120.768 168.378 120.147 169.036 119.343 169.51C118.542 169.979 117.591 170.213 116.487 170.213ZM116.502 167.869C117.004 167.869 117.423 167.727 117.759 167.443C118.095 167.154 118.348 166.761 118.519 166.264C118.694 165.767 118.781 165.201 118.781 164.567C118.781 163.932 118.694 163.366 118.519 162.869C118.348 162.372 118.095 161.979 117.759 161.69C117.423 161.402 117.004 161.257 116.502 161.257C115.995 161.257 115.569 161.402 115.223 161.69C114.882 161.979 114.624 162.372 114.449 162.869C114.279 163.366 114.193 163.932 114.193 164.567C114.193 165.201 114.279 165.767 114.449 166.264C114.624 166.761 114.882 167.154 115.223 167.443C115.569 167.727 115.995 167.869 116.502 167.869ZM123.824 170V159.091H126.757V160.994H126.871C127.07 160.317 127.404 159.806 127.872 159.46C128.341 159.11 128.881 158.935 129.492 158.935C129.643 158.935 129.807 158.944 129.982 158.963C130.157 158.982 130.311 159.008 130.443 159.041V161.726C130.301 161.683 130.105 161.645 129.854 161.612C129.603 161.579 129.373 161.562 129.165 161.562C128.72 161.562 128.322 161.66 127.972 161.854C127.626 162.043 127.352 162.308 127.148 162.649C126.949 162.99 126.85 163.383 126.85 163.828V170H123.824ZM141.084 162.202L138.314 162.372C138.267 162.135 138.165 161.922 138.009 161.733C137.853 161.539 137.647 161.385 137.391 161.271C137.14 161.153 136.84 161.094 136.489 161.094C136.02 161.094 135.625 161.193 135.303 161.392C134.981 161.586 134.82 161.847 134.82 162.173C134.82 162.434 134.924 162.654 135.133 162.834C135.341 163.014 135.698 163.158 136.205 163.267L138.18 163.665C139.24 163.883 140.031 164.233 140.552 164.716C141.073 165.199 141.333 165.833 141.333 166.619C141.333 167.334 141.122 167.962 140.701 168.501C140.284 169.041 139.711 169.463 138.982 169.766C138.258 170.064 137.422 170.213 136.475 170.213C135.031 170.213 133.88 169.912 133.023 169.311C132.171 168.705 131.672 167.881 131.525 166.839L134.501 166.683C134.591 167.124 134.808 167.46 135.154 167.692C135.5 167.919 135.942 168.033 136.482 168.033C137.012 168.033 137.439 167.931 137.761 167.727C138.087 167.519 138.253 167.251 138.258 166.925C138.253 166.65 138.137 166.425 137.91 166.25C137.682 166.07 137.332 165.933 136.859 165.838L134.969 165.462C133.904 165.249 133.111 164.879 132.59 164.354C132.074 163.828 131.816 163.158 131.816 162.344C131.816 161.643 132.005 161.039 132.384 160.533C132.768 160.026 133.305 159.635 133.996 159.361C134.692 159.086 135.507 158.949 136.439 158.949C137.817 158.949 138.902 159.24 139.692 159.822C140.488 160.405 140.952 161.198 141.084 162.202ZM146.264 163.693V170H143.238V155.455H146.178V161.016H146.306C146.553 160.372 146.95 159.867 147.5 159.503C148.049 159.134 148.738 158.949 149.566 158.949C150.324 158.949 150.984 159.115 151.548 159.446C152.116 159.773 152.556 160.244 152.869 160.859C153.186 161.47 153.342 162.202 153.338 163.054V170H150.312V163.594C150.317 162.921 150.146 162.398 149.801 162.024C149.46 161.65 148.982 161.463 148.366 161.463C147.954 161.463 147.589 161.551 147.272 161.726C146.96 161.901 146.714 162.157 146.534 162.493C146.358 162.824 146.268 163.224 146.264 163.693ZM155.719 170V159.091H158.744V170H155.719ZM157.239 157.685C156.789 157.685 156.403 157.536 156.081 157.237C155.764 156.934 155.605 156.572 155.605 156.151C155.605 155.734 155.764 155.376 156.081 155.078C156.403 154.775 156.789 154.624 157.239 154.624C157.688 154.624 158.072 154.775 158.389 155.078C158.711 155.376 158.872 155.734 158.872 156.151C158.872 156.572 158.711 156.934 158.389 157.237C158.072 157.536 157.688 157.685 157.239 157.685ZM161.168 174.091V159.091H164.151V160.923H164.286C164.418 160.63 164.61 160.331 164.861 160.028C165.117 159.721 165.448 159.465 165.855 159.261C166.267 159.053 166.779 158.949 167.389 158.949C168.185 158.949 168.919 159.157 169.591 159.574C170.263 159.986 170.801 160.608 171.203 161.442C171.606 162.27 171.807 163.31 171.807 164.56C171.807 165.777 171.611 166.804 171.218 167.642C170.829 168.475 170.299 169.107 169.627 169.538C168.959 169.964 168.211 170.178 167.382 170.178C166.795 170.178 166.296 170.08 165.884 169.886C165.477 169.692 165.143 169.448 164.882 169.155C164.622 168.857 164.423 168.556 164.286 168.253H164.193V174.091H161.168ZM164.129 164.545C164.129 165.194 164.219 165.76 164.399 166.243C164.579 166.726 164.84 167.102 165.181 167.372C165.522 167.637 165.936 167.77 166.424 167.77C166.916 167.77 167.333 167.635 167.674 167.365C168.014 167.09 168.272 166.712 168.448 166.229C168.628 165.741 168.718 165.18 168.718 164.545C168.718 163.916 168.63 163.362 168.455 162.884C168.28 162.405 168.022 162.031 167.681 161.761C167.34 161.491 166.921 161.357 166.424 161.357C165.931 161.357 165.514 161.487 165.174 161.747C164.837 162.008 164.579 162.377 164.399 162.855C164.219 163.333 164.129 163.897 164.129 164.545Z" fill="#E6E6E5"/>
<g clip-path="url(#clip0_418_497)">
<path d="M19.0774 24.1778V17.9883H16.0832V18.5848H7.89355V27.172H21.4751V24.1778H19.0774ZM16.0832 24.1778H10.8901V21.5742H16.0832V24.1778Z" fill="#ED1C24"/>
<path d="M7.7541 27.7118L5.34692 21.8962C5.22091 21.5902 5.01689 21.3225 4.75518 21.1199L3.30188 19.9979C3.15406 19.8887 2.97436 19.8313 2.79062 19.8346H2.08053C1.83438 19.8333 1.59529 19.9169 1.40359 20.0713V20.0713C1.3394 20.1255 1.29039 20.1954 1.26135 20.2743C1.2323 20.3531 1.22422 20.4381 1.2379 20.521L1.55271 22.3814C1.57164 22.4927 1.73969 22.9448 1.62845 22.9637L1.32075 22.727C1.28569 22.698 1.24403 22.6781 1.19945 22.669C1.15486 22.6599 1.10872 22.6619 1.06512 22.6749C0.864567 22.7308 0.68968 22.8546 0.570424 23.0252C0.407105 23.2619 0.402371 23.4655 0.284024 24.0951L0.17041 24.675C1.13612 27.2786 2.3196 28.6988 3.44626 31.0303L4.35043 32.2469C4.84276 33.054 4.44275 33.2197 5.00608 33.9369C5.74457 34.8836 7.34935 36.1523 8.21566 36.4364C8.23222 36.4364 10.2512 37.0092 10.2654 37.0163L17.3142 38.9098C17.7063 39.0697 18.1263 39.1502 18.5497 39.1465H19.1533C19.5198 39.1471 19.8831 39.0772 20.2232 38.9406L31.9466 34.2446L27.6128 33.6718C27.6128 33.6718 25.7642 31.8516 24.3772 31.7593C22.9901 31.667 20.6255 33.2149 20.6255 33.2149C20.6255 33.2149 14.5449 34.4576 10.2654 33.3262C9.80254 33.1968 9.39568 32.9174 9.10868 32.5319C8.82167 32.1464 8.67075 31.6765 8.67958 31.1959L7.7541 27.7118Z" fill="#231F20" stroke="#231F20" stroke-miterlimit="10"/>
<path d="M27.452 33.6362C23.9915 32.8031 18.1452 33.1344 17.3688 33.1818C17.3097 33.1865 17.2504 33.1865 17.1913 33.1818C15.3198 33.0868 13.4549 32.8885 11.6053 32.5877C11.2311 32.526 10.891 32.3333 10.6457 32.0442C10.4003 31.755 10.2656 31.3881 10.2656 31.0089V31.0089C10.266 30.8367 10.2939 30.6657 10.3485 30.5024C10.554 29.8404 10.9854 29.2716 11.5674 28.8952C11.815 28.7402 12.1014 28.6581 12.3935 28.6585C14.119 28.642 18.6588 28.2041 19.4257 28.1283C19.499 28.1213 19.5717 28.1095 19.6435 28.0928C21.6246 27.6052 23.246 26.1993 23.5915 25.8774C23.6402 25.8324 23.6916 25.7905 23.7454 25.7519C26.0863 24.1211 30.1054 23.5554 31.2699 23.4229C31.479 23.3968 31.6904 23.3968 31.8995 23.4229C36.3801 24.0217 39.6702 27.0395 40.8181 28.2325C41.1022 28.5304 41.2607 28.9262 41.2608 29.3378V35.9771C41.2616 36.2068 41.2 36.4324 41.0825 36.6297C40.965 36.827 40.7961 36.9887 40.5938 37.0974C40.3915 37.2061 40.1634 37.2577 39.934 37.2468C39.7046 37.2358 39.4825 37.1626 39.2915 37.0351C37.1976 35.6767 34.8534 34.7504 32.3966 34.3108L32.2948 34.2942L28.0153 33.7475C27.8256 33.7209 27.6376 33.6838 27.452 33.6362V33.6362Z" fill="#231F20" stroke="#231F20" stroke-miterlimit="10"/>
<path d="M12.6774 8C13.8609 9.37993 13.7212 11.6688 13.6242 12.4972C13.6028 12.6575 13.548 12.8115 13.4632 12.9493C12.8336 14.0026 13.5792 18.5187 13.5792 18.5187H12.6774C12.6774 18.5187 11.9673 13.9552 12.6774 12.9067C13.3875 11.8581 12.6774 8 12.6774 8Z" fill="#85B362"/>
<path d="M13.7589 12.0003C13.7589 12.0003 17.1366 7.69479 21.0775 11.2002C21.0775 11.2002 20.2893 11.3659 19.9248 12.5234C19.9248 12.5234 19.2786 14.4832 16.7318 14.0429C14.185 13.6027 13.6855 12.4239 13.6855 12.4239C13.6855 12.4239 17.236 9.92919 20.0479 11.2263C20.0479 11.2263 18.3887 9.37769 13.7589 12.0003Z" fill="#85B362"/>
<path d="M12.5043 14.6985C12.5043 14.6985 12.5422 12.4783 9.9007 12.554C9.9007 12.554 8.52314 12.2724 6.62012 13.9742C6.91726 13.9646 7.21115 14.0384 7.46844 14.1874C7.72574 14.3363 7.93614 14.5544 8.07579 14.8168C8.07579 14.8168 9.59537 16.7104 10.4427 16.5921C10.4427 16.5921 11.8984 16.54 12.3576 15.3281C11.8736 14.6842 11.2312 14.1765 10.493 13.8542C9.75473 13.532 8.94568 13.4061 8.14443 13.489C8.14443 13.489 10.3078 12.9233 12.5043 14.6985Z" fill="#85B362"/>
</g>
<g clip-path="url(#clip1_418_497)">
<path d="M19.0774 84.1778V77.9883H16.0832V78.5848H7.89355V87.172H21.4751V84.1778H19.0774ZM16.0832 84.1778H10.8901V81.5742H16.0832V84.1778Z" fill="#ED1C24"/>
<path d="M7.7541 87.7118L5.34692 81.8962C5.22091 81.5902 5.01689 81.3225 4.75518 81.1199L3.30188 79.9979C3.15406 79.8887 2.97436 79.8313 2.79062 79.8346H2.08053C1.83438 79.8333 1.59529 79.9169 1.40359 80.0713V80.0713C1.3394 80.1255 1.29039 80.1954 1.26135 80.2743C1.2323 80.3531 1.22422 80.4381 1.2379 80.521L1.55271 82.3814C1.57164 82.4927 1.73969 82.9448 1.62845 82.9637L1.32075 82.727C1.28569 82.698 1.24403 82.6781 1.19945 82.669C1.15486 82.6599 1.10872 82.6619 1.06512 82.6749C0.864567 82.7308 0.68968 82.8546 0.570424 83.0252C0.407105 83.2619 0.402371 83.4655 0.284024 84.0951L0.17041 84.675C1.13612 87.2786 2.3196 88.6988 3.44626 91.0303L4.35043 92.2469C4.84276 93.054 4.44275 93.2197 5.00608 93.9369C5.74457 94.8836 7.34935 96.1523 8.21566 96.4364C8.23222 96.4364 10.2512 97.0092 10.2654 97.0163L17.3142 98.9098C17.7063 99.0697 18.1263 99.1502 18.5497 99.1465H19.1533C19.5198 99.1471 19.8831 99.0772 20.2232 98.9406L31.9466 94.2446L27.6128 93.6718C27.6128 93.6718 25.7642 91.8516 24.3772 91.7593C22.9901 91.667 20.6255 93.2149 20.6255 93.2149C20.6255 93.2149 14.5449 94.4576 10.2654 93.3262C9.80254 93.1968 9.39568 92.9174 9.10868 92.5319C8.82167 92.1464 8.67075 91.6765 8.67958 91.1959L7.7541 87.7118Z" fill="#231F20" stroke="#231F20" stroke-miterlimit="10"/>
<path d="M27.452 93.6362C23.9915 92.8031 18.1452 93.1344 17.3688 93.1818C17.3097 93.1865 17.2504 93.1865 17.1913 93.1818C15.3198 93.0868 13.4549 92.8885 11.6053 92.5877C11.2311 92.526 10.891 92.3333 10.6457 92.0442C10.4003 91.755 10.2656 91.3881 10.2656 91.0089V91.0089C10.266 90.8367 10.2939 90.6657 10.3485 90.5024C10.554 89.8404 10.9854 89.2716 11.5674 88.8952C11.815 88.7402 12.1014 88.6581 12.3935 88.6585C14.119 88.642 18.6588 88.2041 19.4257 88.1283C19.499 88.1213 19.5717 88.1095 19.6435 88.0928C21.6246 87.6052 23.246 86.1993 23.5915 85.8774C23.6402 85.8324 23.6916 85.7905 23.7454 85.7519C26.0863 84.1211 30.1054 83.5554 31.2699 83.4229C31.479 83.3968 31.6904 83.3968 31.8995 83.4229C36.3801 84.0217 39.6702 87.0395 40.8181 88.2325C41.1022 88.5304 41.2607 88.9262 41.2608 89.3378V95.9771C41.2616 96.2068 41.2 96.4324 41.0825 96.6297C40.965 96.827 40.7961 96.9887 40.5938 97.0974C40.3915 97.2061 40.1634 97.2577 39.934 97.2468C39.7046 97.2358 39.4825 97.1626 39.2915 97.0351C37.1976 95.6767 34.8534 94.7504 32.3966 94.3108L32.2948 94.2942L28.0153 93.7475C27.8256 93.7209 27.6376 93.6838 27.452 93.6362V93.6362Z" fill="#231F20" stroke="#231F20" stroke-miterlimit="10"/>
<path d="M12.6774 68C13.8609 69.3799 13.7212 71.6688 13.6242 72.4972C13.6028 72.6575 13.548 72.8115 13.4632 72.9493C12.8336 74.0026 13.5792 78.5187 13.5792 78.5187H12.6774C12.6774 78.5187 11.9673 73.9552 12.6774 72.9067C13.3875 71.8581 12.6774 68 12.6774 68Z" fill="#85B362"/>
<path d="M13.7589 72.0003C13.7589 72.0003 17.1366 67.6948 21.0775 71.2002C21.0775 71.2002 20.2893 71.3659 19.9248 72.5234C19.9248 72.5234 19.2786 74.4832 16.7318 74.0429C14.185 73.6027 13.6855 72.4239 13.6855 72.4239C13.6855 72.4239 17.236 69.9292 20.0479 71.2263C20.0479 71.2263 18.3887 69.3777 13.7589 72.0003Z" fill="#85B362"/>
<path d="M12.5043 74.6985C12.5043 74.6985 12.5422 72.4783 9.9007 72.554C9.9007 72.554 8.52314 72.2724 6.62012 73.9742C6.91726 73.9646 7.21115 74.0384 7.46844 74.1874C7.72574 74.3363 7.93614 74.5544 8.07579 74.8168C8.07579 74.8168 9.59537 76.7104 10.4427 76.5921C10.4427 76.5921 11.8984 76.54 12.3576 75.3281C11.8736 74.6842 11.2312 74.1765 10.493 73.8542C9.75473 73.532 8.94568 73.4061 8.14443 73.489C8.14443 73.489 10.3078 72.9233 12.5043 74.6985Z" fill="#85B362"/>
</g>
<g clip-path="url(#clip2_418_497)">
<path d="M19.0774 146.178V139.988H16.0832V140.585H7.89355V149.172H21.4751V146.178H19.0774ZM16.0832 146.178H10.8901V143.574H16.0832V146.178Z" fill="#ED1C24"/>
<path d="M7.7541 149.712L5.34692 143.896C5.22091 143.59 5.01689 143.322 4.75518 143.12L3.30188 141.998C3.15406 141.889 2.97436 141.831 2.79062 141.835H2.08053C1.83438 141.833 1.59529 141.917 1.40359 142.071V142.071C1.3394 142.126 1.29039 142.195 1.26135 142.274C1.2323 142.353 1.22422 142.438 1.2379 142.521L1.55271 144.381C1.57164 144.493 1.73969 144.945 1.62845 144.964L1.32075 144.727C1.28569 144.698 1.24403 144.678 1.19945 144.669C1.15486 144.66 1.10872 144.662 1.06512 144.675C0.864567 144.731 0.68968 144.855 0.570424 145.025C0.407105 145.262 0.402371 145.465 0.284024 146.095L0.17041 146.675C1.13612 149.279 2.3196 150.699 3.44626 153.03L4.35043 154.247C4.84276 155.054 4.44275 155.22 5.00608 155.937C5.74457 156.884 7.34935 158.152 8.21566 158.436C8.23222 158.436 10.2512 159.009 10.2654 159.016L17.3142 160.91C17.7063 161.07 18.1263 161.15 18.5497 161.147H19.1533C19.5198 161.147 19.8831 161.077 20.2232 160.941L31.9466 156.245L27.6128 155.672C27.6128 155.672 25.7642 153.852 24.3772 153.759C22.9901 153.667 20.6255 155.215 20.6255 155.215C20.6255 155.215 14.5449 156.458 10.2654 155.326C9.80254 155.197 9.39568 154.917 9.10868 154.532C8.82167 154.146 8.67075 153.676 8.67958 153.196L7.7541 149.712Z" fill="#231F20" stroke="#231F20" stroke-miterlimit="10"/>
<path d="M27.452 155.636C23.9915 154.803 18.1452 155.134 17.3688 155.182C17.3097 155.187 17.2504 155.187 17.1913 155.182C15.3198 155.087 13.4549 154.888 11.6053 154.588C11.2311 154.526 10.891 154.333 10.6457 154.044C10.4003 153.755 10.2656 153.388 10.2656 153.009V153.009C10.266 152.837 10.2939 152.666 10.3485 152.502C10.554 151.84 10.9854 151.272 11.5674 150.895C11.815 150.74 12.1014 150.658 12.3935 150.659C14.119 150.642 18.6588 150.204 19.4257 150.128C19.499 150.121 19.5717 150.109 19.6435 150.093C21.6246 149.605 23.246 148.199 23.5915 147.877C23.6402 147.832 23.6916 147.791 23.7454 147.752C26.0863 146.121 30.1054 145.555 31.2699 145.423C31.479 145.397 31.6904 145.397 31.8995 145.423C36.3801 146.022 39.6702 149.04 40.8181 150.232C41.1022 150.53 41.2607 150.926 41.2608 151.338V157.977C41.2616 158.207 41.2 158.432 41.0825 158.63C40.965 158.827 40.7961 158.989 40.5938 159.097C40.3915 159.206 40.1634 159.258 39.934 159.247C39.7046 159.236 39.4825 159.163 39.2915 159.035C37.1976 157.677 34.8534 156.75 32.3966 156.311L32.2948 156.294L28.0153 155.747C27.8256 155.721 27.6376 155.684 27.452 155.636V155.636Z" fill="#231F20" stroke="#231F20" stroke-miterlimit="10"/>
<path d="M12.6774 130C13.8609 131.38 13.7212 133.669 13.6242 134.497C13.6028 134.658 13.548 134.812 13.4632 134.949C12.8336 136.003 13.5792 140.519 13.5792 140.519H12.6774C12.6774 140.519 11.9673 135.955 12.6774 134.907C13.3875 133.858 12.6774 130 12.6774 130Z" fill="#85B362"/>
<path d="M13.7589 134C13.7589 134 17.1366 129.695 21.0775 133.2C21.0775 133.2 20.2893 133.366 19.9248 134.523C19.9248 134.523 19.2786 136.483 16.7318 136.043C14.185 135.603 13.6855 134.424 13.6855 134.424C13.6855 134.424 17.236 131.929 20.0479 133.226C20.0479 133.226 18.3887 131.378 13.7589 134Z" fill="#85B362"/>
<path d="M12.5043 136.698C12.5043 136.698 12.5422 134.478 9.9007 134.554C9.9007 134.554 8.52314 134.272 6.62012 135.974C6.91726 135.965 7.21115 136.038 7.46844 136.187C7.72574 136.336 7.93614 136.554 8.07579 136.817C8.07579 136.817 9.59537 138.71 10.4427 138.592C10.4427 138.592 11.8984 138.54 12.3576 137.328C11.8736 136.684 11.2312 136.176 10.493 135.854C9.75473 135.532 8.94568 135.406 8.14443 135.489C8.14443 135.489 10.3078 134.923 12.5043 136.698Z" fill="#85B362"/>
</g>
<defs>
<clipPath id="clip0_418_497">
<rect width="41.4263" height="36.2285" fill="white" transform="translate(0 8)"/>
</clipPath>
<clipPath id="clip1_418_497">
<rect width="41.4263" height="36.2285" fill="white" transform="translate(0 68)"/>
</clipPath>
<clipPath id="clip2_418_497">
<rect width="41.4263" height="36.2285" fill="white" transform="translate(0 130)"/>
</clipPath>
</defs>
</svg>
