<?xml version="1.0" standalone="no"?>
<!DOCTYPE svg PUBLIC "-//W3C//DTD SVG 20010904//EN"
 "http://www.w3.org/TR/2001/REC-SVG-20010904/DTD/svg10.dtd">
<svg version="1.0" xmlns="http://www.w3.org/2000/svg"
 width="730.000000pt" height="638.000000pt" viewBox="0 0 730.000000 638.000000"
 preserveAspectRatio="xMidYMid meet">

<g transform="translate(0.000000,638.000000) scale(0.100000,-0.100000)"
fill="#000000" stroke="none">
<path d="M2830 4570 l0 -50 -720 0 -720 0 0 -760 0 -760 1195 0 1195 0 0 265
0 265 -210 0 -210 0 0 545 0 545 -265 0 -265 0 0 -50z m0 -810 l0 -230 -455 0
-455 0 0 230 0 230 455 0 455 0 0 -230z"/>
<path d="M284 4301 c-53 -24 -84 -64 -84 -108 0 -30 38 -276 56 -365 5 -26 4
-26 -24 -16 -37 14 -72 5 -113 -29 -43 -37 -63 -87 -89 -225 l-22 -116 37 -94
c56 -140 166 -355 319 -622 75 -131 155 -275 178 -320 22 -44 80 -135 128
-201 107 -148 107 -147 126 -242 9 -43 27 -98 42 -123 35 -62 216 -240 333
-327 196 -147 170 -139 1229 -422 349 -93 655 -177 680 -186 77 -27 228 -40
332 -28 89 11 144 32 1155 436 l1061 424 59 -9 c103 -15 381 -88 516 -135 235
-81 461 -189 657 -313 91 -58 138 -74 200 -68 109 11 198 89 220 192 7 36 10
252 8 672 l-3 619 -28 56 c-20 41 -58 87 -137 163 -408 394 -877 650 -1376
751 -152 31 -210 31 -404 1 -402 -64 -744 -162 -990 -286 -112 -56 -169 -93
-265 -174 -165 -139 -360 -252 -535 -310 -99 -33 -124 -36 -450 -65 -471 -42
-585 -50 -800 -60 -135 -6 -196 -13 -225 -25 -108 -46 -224 -178 -266 -303
-26 -78 -23 -186 5 -243 24 -47 93 -117 137 -140 64 -33 406 -83 779 -114 243
-20 297 -22 540 -14 l205 7 -125 -19 c-438 -67 -965 -77 -1300 -25 -238 38
-325 70 -397 148 -57 62 -80 111 -97 209 -8 46 -50 214 -92 373 l-76 290 -220
530 c-120 292 -231 548 -246 569 -30 43 -316 270 -368 292 -51 21 -218 18
-270 -5z"/>
<path d="M4097 633 c-4 -3 -7 -40 -7 -81 l0 -75 -21 19 c-30 27 -108 26 -146
-2 -121 -88 -50 -276 99 -260 108 11 128 52 128 256 l0 150 -23 0 c-13 0 -27
-3 -30 -7z m-32 -198 c52 -51 16 -145 -54 -145 -77 0 -115 97 -57 146 36 31
80 31 111 -1z"/>
<path d="M6537 633 c-4 -3 -7 -93 -7 -200 l0 -193 30 0 30 0 0 84 c0 101 19
136 75 136 55 0 65 -19 65 -126 l0 -94 30 0 30 0 0 110 c0 104 -2 112 -24 135
-33 33 -87 41 -137 22 l-39 -15 0 74 c0 71 -1 74 -23 74 -13 0 -27 -3 -30 -7z"/>
<path d="M6863 623 c-20 -8 -16 -51 6 -58 28 -9 51 5 51 30 0 29 -26 41 -57
28z"/>
<path d="M167 608 c-17 -14 -39 -60 -118 -250 l-48 -118 34 0 c31 0 34 3 50
50 l17 50 92 0 92 0 18 -50 c17 -47 20 -50 52 -50 19 0 34 3 34 6 0 9 -111
276 -132 319 -29 57 -55 69 -91 43z m87 -185 c7 -22 5 -23 -58 -23 -36 0 -66
2 -66 5 0 3 14 40 32 82 l32 77 27 -60 c14 -32 30 -69 33 -81z"/>
<path d="M527 605 c-80 -28 -120 -89 -120 -180 0 -68 17 -110 63 -149 55 -46
153 -57 232 -27 26 10 27 13 16 36 -9 21 -16 25 -32 19 -48 -16 -114 -16 -145
1 -40 20 -71 70 -71 113 0 112 104 175 202 122 37 -20 37 -20 48 0 32 61 -90
102 -193 65z"/>
<path d="M2560 611 l-25 -7 -3 -182 -2 -182 30 0 30 0 0 66 0 65 52 -3 c52 -3
53 -4 85 -57 18 -30 34 -58 35 -63 2 -5 20 -8 41 -6 l38 3 -43 69 -43 69 33
33 c65 65 31 173 -63 194 -46 11 -128 11 -165 1z m175 -76 c32 -31 31 -50 0
-81 -22 -22 -32 -25 -83 -22 l-57 3 -3 63 -3 62 61 0 c51 0 65 -4 85 -25z"/>
<path d="M787 603 c-4 -3 -7 -87 -7 -185 l0 -178 125 0 125 0 0 30 0 30 -95 0
-95 0 0 155 0 155 -23 0 c-13 0 -27 -3 -30 -7z"/>
<path d="M1186 595 c-8 -21 -8 -21 75 -131 l69 -91 0 -66 0 -67 30 0 30 0 0
71 c0 70 1 71 58 152 99 141 96 136 68 143 -33 8 -36 6 -101 -87 l-56 -80 -62
83 c-62 83 -98 107 -111 73z"/>
<path d="M4381 601 c-13 -9 -29 -161 -30 -303 -1 -57 -1 -58 28 -58 l29 0 6
108 c12 185 6 179 62 65 43 -91 52 -103 74 -103 23 0 32 12 75 101 l50 101 6
-58 c4 -33 7 -94 8 -136 l1 -78 36 0 c29 0 34 3 30 18 -2 9 -8 90 -12 180 -6
160 -7 162 -30 168 -13 3 -31 3 -40 0 -8 -3 -38 -53 -65 -111 -27 -58 -53
-105 -57 -105 -4 1 -27 44 -52 97 -25 53 -51 102 -58 110 -15 15 -41 17 -61 4z"/>
<path d="M5460 576 c-8 -11 -11 -57 -8 -155 3 -131 5 -142 26 -163 18 -19 33
-23 77 -22 61 0 80 12 70 43 -5 18 -12 20 -44 15 -55 -9 -71 11 -71 92 l0 64
56 0 c54 0 55 0 52 28 -3 25 -7 27 -55 30 l-53 3 0 40 c0 31 -4 39 -19 39 -10
0 -24 -7 -31 -14z"/>
<path d="M1591 502 c-47 -23 -72 -61 -78 -114 -11 -100 64 -167 172 -153 68 8
80 16 66 44 -10 17 -16 19 -31 11 -33 -17 -98 -12 -120 10 -11 11 -20 24 -20
29 0 4 30 11 67 14 81 8 117 30 121 75 4 42 -13 71 -53 88 -46 19 -83 18 -124
-4z m107 -44 c18 -18 14 -46 -7 -58 -20 -10 -121 -14 -121 -4 0 12 24 50 39
61 21 16 74 16 89 1z"/>
<path d="M1864 510 c-28 -11 -36 -24 -28 -44 5 -12 11 -13 24 -6 32 17 105 12
123 -8 28 -31 21 -42 -30 -42 -65 0 -121 -17 -133 -40 -5 -10 -10 -34 -10 -54
0 -64 77 -96 195 -81 l55 6 0 108 c0 93 -3 110 -20 129 -33 36 -126 53 -176
32z m136 -190 l0 -40 -46 0 c-55 0 -84 14 -84 40 0 26 27 39 83 40 l47 0 0
-40z"/>
<path d="M2175 506 c-44 -19 -55 -53 -55 -166 l0 -100 30 0 30 0 0 90 c0 78 3
93 21 111 16 16 30 20 62 17 37 -3 42 0 45 19 6 39 -71 56 -133 29z"/>
<path d="M2953 510 c-67 -21 -107 -105 -84 -180 36 -120 219 -132 271 -18 11
24 20 51 20 60 0 34 -33 99 -60 118 -34 24 -103 33 -147 20z m112 -75 c52 -51
16 -145 -54 -145 -47 0 -85 39 -84 86 2 74 87 111 138 59z"/>
<path d="M3625 512 c-69 -23 -85 -56 -85 -174 l0 -98 30 0 30 0 0 81 c0 109
16 139 76 139 52 0 64 -24 64 -128 l0 -92 30 0 30 0 0 103 c0 79 -4 108 -16
126 -29 41 -103 61 -159 43z"/>
<path d="M4901 502 c-47 -23 -72 -61 -78 -114 -11 -100 64 -167 172 -153 68 8
80 16 66 44 -10 17 -16 19 -31 11 -33 -17 -98 -12 -120 10 -11 11 -20 24 -20
29 0 4 30 11 67 14 81 8 117 30 121 75 4 42 -13 71 -53 88 -46 19 -83 18 -124
-4z m107 -44 c18 -18 14 -46 -7 -58 -20 -10 -121 -14 -121 -4 0 12 24 50 39
61 21 16 74 16 89 1z"/>
<path d="M5215 512 c-69 -23 -85 -56 -85 -174 l0 -98 30 0 30 0 0 81 c0 109
16 139 76 139 52 0 64 -24 64 -128 l0 -92 30 0 30 0 0 103 c0 79 -4 108 -16
126 -29 41 -103 61 -159 43z"/>
<path d="M5753 510 c-67 -21 -107 -105 -84 -180 36 -120 219 -132 271 -18 11
24 20 51 20 60 0 34 -33 99 -60 118 -34 24 -103 33 -147 20z m112 -75 c52 -51
16 -145 -54 -145 -47 0 -85 39 -84 86 2 74 87 111 138 59z"/>
<path d="M6065 506 c-44 -19 -55 -53 -55 -166 l0 -100 30 0 30 0 0 90 c0 78 3
93 21 111 16 16 30 20 62 17 37 -3 42 0 45 19 6 39 -71 56 -133 29z"/>
<path d="M6273 506 c-55 -25 -71 -86 -30 -124 14 -13 45 -25 85 -31 74 -12 82
-16 82 -41 0 -32 -77 -39 -156 -15 -23 7 -42 -21 -26 -37 19 -19 135 -31 179
-19 49 14 78 54 67 96 -8 33 -34 46 -113 59 -71 12 -95 32 -71 61 11 13 26 16
64 12 28 -2 61 -8 73 -12 28 -9 43 19 21 41 -21 21 -136 28 -175 10z"/>
<path d="M7075 513 c-32 -9 -65 -34 -81 -64 -10 -21 -14 -66 -14 -174 l0 -145
30 0 30 0 0 64 0 64 39 -15 c133 -52 237 99 156 224 -28 42 -97 62 -160 46z
m100 -78 c75 -74 -25 -190 -109 -124 -21 16 -26 29 -26 64 0 35 5 48 26 64 36
28 79 27 109 -4z"/>
<path d="M3217 503 c-11 -10 -8 -167 4 -201 28 -80 173 -96 229 -25 17 22 20
41 20 129 0 93 -2 104 -18 104 -33 0 -42 -21 -42 -105 0 -92 -13 -115 -66
-115 -58 0 -74 31 -74 139 0 78 -1 81 -23 81 -13 0 -27 -3 -30 -7z"/>
<path d="M6862 498 c-8 -8 -12 -51 -12 -135 l0 -123 35 0 36 0 -3 133 c-3 124
-4 132 -23 135 -11 1 -26 -3 -33 -10z"/>
<path d="M2332 393 c3 -27 5 -28 71 -31 l68 -3 -3 28 c-3 27 -5 28 -71 31
l-68 3 3 -28z"/>
</g>
</svg>
